# xmcd
# 
# Track frame offsets:
#     150
#     14117
#     24690
#     35620
#     74950
#     88100
#     102722
#     111697
#     119740
#     127390
#     138545
#     146052
#     156692
#     169610
# 
# Disc length: 2438
# 
# Revision: 2
# Processed by: cddbd v1.5.2PL0 Copyright (c) Steve Scherf et al.
# Submitted via: fre:ac v1.0.17
# 
DISCID=f509840e
DTITLE=Billie Holiday - The Very Best of Billie Holiday
DYEAR=0
DGENRE=Blues
TTITLE0=God Bless the Child
TTITLE1=T' Ain't Nobody's Bizness If I Do
TTITLE2=I Got It Bad (And That Ain't Good)
TTITLE3=Fine And Mellow
TTITLE4=Billie's Blues
TTITLE5=Don't Be Late
TTITLE6=When Your Lover Has Gone
TTITLE7=Miss Brown To You
TTITLE8=All Of Me
TTITLE9=Foolin' Myself
TTITLE10=Moonlight In Vermont
TTITLE11=Lover Come Back To Me
TTITLE12=My Man
TTITLE13=He's Funny That Way
EXTD=
EXTT0=
EXTT1=
EXTT2=
EXTT3=
EXTT4=
EXTT5=
EXTT6=
EXTT7=
EXTT8=
EXTT9=
EXTT10=
EXTT11=
EXTT12=
EXTT13=
PLAYORDER=
